<svg width="16" height="16" viewBox="0 0 16 16" fill="none" xmlns="http://www.w3.org/2000/svg">
<path d="M14.4253 6.75488L10.5703 5.26538L9.16841 1.16945C9.08097 0.913827 8.9216 0.692995 8.71195 0.536943C8.50229 0.380891 8.25251 0.29718 7.99653 0.29718C7.74055 0.29718 7.49077 0.380891 7.28112 0.536943C7.07147 0.692995 6.9121 0.913827 6.82466 1.16945L5.42278 5.26538L1.56778 6.75488C1.3272 6.84778 1.11936 7.01711 0.972485 7.23987C0.825612 7.46262 0.746826 7.72801 0.746826 7.99999C0.746826 8.27197 0.825612 8.53736 0.972485 8.76012C1.11936 8.98288 1.3272 9.15221 1.56778 9.24511L5.42278 10.7346L6.82466 14.8305C6.9121 15.0862 7.07147 15.307 7.28112 15.463C7.49077 15.6191 7.74055 15.7028 7.99653 15.7028C8.25251 15.7028 8.50229 15.6191 8.71195 15.463C8.9216 15.307 9.08097 15.0862 9.16841 14.8305L10.5703 10.7346L14.4253 9.24511C14.6659 9.15221 14.8737 8.98288 15.0206 8.76012C15.1675 8.53736 15.2462 8.27197 15.2462 7.99999C15.2462 7.72801 15.1675 7.46262 15.0206 7.23987C14.8737 7.01711 14.6659 6.84778 14.4253 6.75488ZM9.94716 9.27831C9.77571 9.34434 9.62 9.44958 9.49105 9.58659C9.3621 9.7236 9.26305 9.88904 9.20091 10.0712L7.99653 13.5907L6.79216 10.0712C6.73002 9.88904 6.63097 9.7236 6.50202 9.58659C6.37306 9.44958 6.21736 9.34434 6.04591 9.27831L2.73341 7.99999L6.04591 6.72035C6.21736 6.65432 6.37306 6.54908 6.50202 6.41207C6.63097 6.27506 6.73002 6.10962 6.79216 5.92745L7.99653 2.40792L9.20091 5.92745C9.26305 6.10962 9.3621 6.27506 9.49105 6.41207C9.62 6.54908 9.77571 6.65432 9.94716 6.72035L13.2597 7.99999L9.94716 9.27831Z" fill="#33C6AB"/>
</svg>
