<svg width="17" height="17" viewBox="0 0 17 17" fill="none" xmlns="http://www.w3.org/2000/svg">
<path d="M12.1667 3.83331C12.719 3.83331 13.1667 4.28103 13.1667 4.83331C13.1667 5.3856 12.719 5.83331 12.1667 5.83331C11.6145 5.83331 11.1667 5.3856 11.1667 4.83331C11.1667 4.28103 11.6145 3.83331 12.1667 3.83331Z" stroke="#1D1C20" stroke-linecap="round" stroke-linejoin="round"/>
<path d="M2.34941 7.92925C1.68064 8.67618 1.66625 9.80305 2.28003 10.5958C3.49799 12.1688 4.83108 13.5019 6.40414 14.7198C7.19685 15.3336 8.32372 15.3192 9.07065 14.6505C11.0985 12.8348 12.9556 10.9372 14.7479 8.85191C14.9251 8.64578 15.0359 8.39311 15.0607 8.12238C15.1707 6.9253 15.3967 3.47643 14.4601 2.53981C13.5235 1.60319 10.0746 1.82916 8.87752 1.93915C8.60679 1.96403 8.35412 2.07487 8.14792 2.25205C6.06267 4.04429 4.16513 5.90139 2.34941 7.92925Z" stroke="#1D1C20"/>
<path d="M5.16675 9.83331L7.16675 11.8333" stroke="#1D1C20" stroke-linecap="round" stroke-linejoin="round"/>
</svg>
